<svg xmlns="http://www.w3.org/2000/svg" width="1600" height="900" viewBox="0 0 1600 900">
  <defs>
    <linearGradient id="bg" x1="0" x2="1" y1="0" y2="1">
      <stop offset="0%" stop-color="#08111f"/>
      <stop offset="54%" stop-color="#10233f"/>
      <stop offset="100%" stop-color="#0f9f9a"/>
    </linearGradient>
    <linearGradient id="panel" x1="0" x2="1">
      <stop offset="0%" stop-color="#ffffff" stop-opacity=".13"/>
      <stop offset="100%" stop-color="#ffffff" stop-opacity=".05"/>
    </linearGradient>
    <filter id="shadow" x="-20%" y="-20%" width="140%" height="140%">
      <feDropShadow dx="0" dy="24" stdDeviation="24" flood-color="#000000" flood-opacity=".28"/>
    </filter>
  </defs>
      <rect width="1600" height="900" fill="url(#bg)"/>
      <circle cx="1260" cy="110" r="250" fill="#38bdf8" opacity=".16"/>
      <circle cx="1120" cy="760" r="320" fill="#14b8a6" opacity=".2"/>
      <rect x="82" y="96" width="1436" height="708" rx="34" fill="url(#panel)" stroke="#ffffff" stroke-opacity=".18" filter="url(#shadow)"/>
      <text x="126" y="174" fill="#ffffff" font-size="34" font-family="Inter, Arial, sans-serif" font-weight="900">L3AI</text>
      <text x="126" y="262" fill="#ffffff" font-size="62" font-family="Inter, Arial, sans-serif" font-weight="900">AI-native intelligence</text>
      <text x="126" y="330" fill="#ffffff" font-size="62" font-family="Inter, Arial, sans-serif" font-weight="900">layer for Web3</text>
      <text x="126" y="398" fill="#ffffff" font-size="62" font-family="Inter, Arial, sans-serif" font-weight="900">decisions.</text>
      <text x="134" y="482" fill="#dbeafe" font-size="34" font-family="Inter, Arial, sans-serif" font-weight="700">Product-led public journey</text>
<text x="134" y="525.52" fill="#dbeafe" font-size="34" font-family="Inter, Arial, sans-serif" font-weight="700">Authentic browser recordings</text>
<text x="134" y="569.04" fill="#dbeafe" font-size="34" font-family="Inter, Arial, sans-serif" font-weight="700">Verified launch assets</text>
      <rect x="918" y="174" width="458" height="472" rx="28" fill="#ffffff" opacity=".96"/>
      <rect x="956" y="220" width="382" height="56" rx="12" fill="#0f172a"/>
      <rect x="956" y="308" width="302" height="28" rx="8" fill="#155eef" opacity=".9"/>
      <rect x="956" y="362" width="350" height="24" rx="8" fill="#0f9f9a" opacity=".75"/>
      <rect x="956" y="432" width="382" height="112" rx="18" fill="#e8f1ff"/>
      <rect x="984" y="464" width="114" height="48" rx="10" fill="#155eef"/>
      <rect x="1120" y="464" width="186" height="48" rx="10" fill="#0f172a"/>
      <text x="956" y="604" fill="#0f172a" font-size="24" font-family="Inter, Arial, sans-serif" font-weight="900">Public site package</text>
      <text x="126" y="728" fill="#93c5fd" font-size="28" font-family="Inter, Arial, sans-serif" font-weight="800">PREMIUM-ASSETS-030</text></svg>