<svg xmlns="http://www.w3.org/2000/svg" width="1600" height="900" viewBox="0 0 1600 900">
  <defs>
    <linearGradient id="bg" x1="0" x2="1" y1="0" y2="1">
      <stop offset="0%" stop-color="#08111f"/>
      <stop offset="54%" stop-color="#10233f"/>
      <stop offset="100%" stop-color="#0f9f9a"/>
    </linearGradient>
    <linearGradient id="panel" x1="0" x2="1">
      <stop offset="0%" stop-color="#ffffff" stop-opacity=".13"/>
      <stop offset="100%" stop-color="#ffffff" stop-opacity=".05"/>
    </linearGradient>
    <filter id="shadow" x="-20%" y="-20%" width="140%" height="140%">
      <feDropShadow dx="0" dy="24" stdDeviation="24" flood-color="#000000" flood-opacity=".28"/>
    </filter>
  </defs>
      <rect width="1600" height="900" fill="#ffffff"/>
      <text x="92" y="110" fill="#0f172a" font-size="52" font-family="Inter, Arial, sans-serif" font-weight="900">L3AI public icon set</text>
      <rect x="150" y="250" width="190" height="150" rx="24" fill="#f1f5f9" stroke="#dbeafe"/><circle cx="245" cy="308" r="34" fill="#155eef"/><text x="245" y="319" text-anchor="middle" fill="#ffffff" font-size="26" font-family="Inter, Arial, sans-serif" font-weight="900">AI</text><text x="245" y="370" text-anchor="middle" fill="#0f172a" font-size="24" font-family="Inter, Arial, sans-serif" font-weight="900">AI</text>
<rect x="490" y="250" width="190" height="150" rx="24" fill="#f1f5f9" stroke="#dbeafe"/><circle cx="585" cy="308" r="34" fill="#0f9f9a"/><text x="585" y="319" text-anchor="middle" fill="#ffffff" font-size="26" font-family="Inter, Arial, sans-serif" font-weight="900">Wa</text><text x="585" y="370" text-anchor="middle" fill="#0f172a" font-size="24" font-family="Inter, Arial, sans-serif" font-weight="900">Wallet</text>
<rect x="830" y="250" width="190" height="150" rx="24" fill="#f1f5f9" stroke="#dbeafe"/><circle cx="925" cy="308" r="34" fill="#155eef"/><text x="925" y="319" text-anchor="middle" fill="#ffffff" font-size="26" font-family="Inter, Arial, sans-serif" font-weight="900">Tr</text><text x="925" y="370" text-anchor="middle" fill="#0f172a" font-size="24" font-family="Inter, Arial, sans-serif" font-weight="900">Trust</text>
<rect x="1170" y="250" width="190" height="150" rx="24" fill="#f1f5f9" stroke="#dbeafe"/><circle cx="1265" cy="308" r="34" fill="#0f9f9a"/><text x="1265" y="319" text-anchor="middle" fill="#ffffff" font-size="26" font-family="Inter, Arial, sans-serif" font-weight="900">Me</text><text x="1265" y="370" text-anchor="middle" fill="#0f172a" font-size="24" font-family="Inter, Arial, sans-serif" font-weight="900">Media</text>
<rect x="150" y="510" width="190" height="150" rx="24" fill="#f1f5f9" stroke="#dbeafe"/><circle cx="245" cy="568" r="34" fill="#155eef"/><text x="245" y="579" text-anchor="middle" fill="#ffffff" font-size="26" font-family="Inter, Arial, sans-serif" font-weight="900">De</text><text x="245" y="630" text-anchor="middle" fill="#0f172a" font-size="24" font-family="Inter, Arial, sans-serif" font-weight="900">Deck</text>
<rect x="490" y="510" width="190" height="150" rx="24" fill="#f1f5f9" stroke="#dbeafe"/><circle cx="585" cy="568" r="34" fill="#0f9f9a"/><text x="585" y="579" text-anchor="middle" fill="#ffffff" font-size="26" font-family="Inter, Arial, sans-serif" font-weight="900">Ro</text><text x="585" y="630" text-anchor="middle" fill="#0f172a" font-size="24" font-family="Inter, Arial, sans-serif" font-weight="900">Roadmap</text>
<rect x="830" y="510" width="190" height="150" rx="24" fill="#f1f5f9" stroke="#dbeafe"/><circle cx="925" cy="568" r="34" fill="#155eef"/><text x="925" y="579" text-anchor="middle" fill="#ffffff" font-size="26" font-family="Inter, Arial, sans-serif" font-weight="900">Ma</text><text x="925" y="630" text-anchor="middle" fill="#0f172a" font-size="24" font-family="Inter, Arial, sans-serif" font-weight="900">Manifest</text>
<rect x="1170" y="510" width="190" height="150" rx="24" fill="#f1f5f9" stroke="#dbeafe"/><circle cx="1265" cy="568" r="34" fill="#0f9f9a"/><text x="1265" y="579" text-anchor="middle" fill="#ffffff" font-size="26" font-family="Inter, Arial, sans-serif" font-weight="900">Co</text><text x="1265" y="630" text-anchor="middle" fill="#0f172a" font-size="24" font-family="Inter, Arial, sans-serif" font-weight="900">Contact</text></svg>