<svg xmlns="http://www.w3.org/2000/svg" width="1600" height="900" viewBox="0 0 1600 900">
  <defs>
    <linearGradient id="bg" x1="0" x2="1" y1="0" y2="1">
      <stop offset="0%" stop-color="#08111f"/>
      <stop offset="54%" stop-color="#10233f"/>
      <stop offset="100%" stop-color="#0f9f9a"/>
    </linearGradient>
    <linearGradient id="panel" x1="0" x2="1">
      <stop offset="0%" stop-color="#ffffff" stop-opacity=".13"/>
      <stop offset="100%" stop-color="#ffffff" stop-opacity=".05"/>
    </linearGradient>
    <filter id="shadow" x="-20%" y="-20%" width="140%" height="140%">
      <feDropShadow dx="0" dy="24" stdDeviation="24" flood-color="#000000" flood-opacity=".28"/>
    </filter>
  </defs>
      <rect width="1600" height="900" fill="#08111f"/>
      <text x="92" y="118" fill="#ffffff" font-size="52" font-family="Inter, Arial, sans-serif" font-weight="900">Business model loop</text>
      <text x="92" y="166" fill="#bfdbfe" font-size="24" font-family="Inter, Arial, sans-serif" font-weight="700">Audience, experience, trust and growth stay connected without unsupported claims.</text>
      <rect x="210" y="326" width="520" height="160" rx="24" fill="#155eef"/><text x="244" y="388" fill="#ffffff" font-size="34" font-family="Inter, Arial, sans-serif" font-weight="900">Audience</text><text x="244" y="432" fill="#eaf2ff" font-size="23" font-family="Inter, Arial, sans-serif" font-weight="700">Customers, partners, media, reviewers</text>
<rect x="820" y="326" width="520" height="160" rx="24" fill="#0f9f9a"/><text x="854" y="388" fill="#ffffff" font-size="34" font-family="Inter, Arial, sans-serif" font-weight="900">Experience</text><text x="854" y="432" fill="#eaf2ff" font-size="23" font-family="Inter, Arial, sans-serif" font-weight="700">AI context and wallet-aware education</text>
<rect x="820" y="604" width="520" height="160" rx="24" fill="#334155"/><text x="854" y="666" fill="#ffffff" font-size="34" font-family="Inter, Arial, sans-serif" font-weight="900">Trust</text><text x="854" y="710" fill="#eaf2ff" font-size="23" font-family="Inter, Arial, sans-serif" font-weight="700">Risk language, manifests, QA evidence</text>
<rect x="210" y="604" width="520" height="160" rx="24" fill="#7c3aed"/><text x="244" y="666" fill="#ffffff" font-size="34" font-family="Inter, Arial, sans-serif" font-weight="900">Growth</text><text x="244" y="710" fill="#eaf2ff" font-size="23" font-family="Inter, Arial, sans-serif" font-weight="700">Resources, media kit, partner review</text>
      <path d="M730 406 C780 350 770 350 820 406" stroke="#ffffff" stroke-width="8" fill="none" opacity=".65"/>
      <path d="M1080 486 C1160 534 1160 556 1080 604" stroke="#ffffff" stroke-width="8" fill="none" opacity=".65"/>
      <path d="M820 684 C770 740 780 740 730 684" stroke="#ffffff" stroke-width="8" fill="none" opacity=".65"/>
      <path d="M470 604 C390 556 390 534 470 486" stroke="#ffffff" stroke-width="8" fill="none" opacity=".65"/></svg>