<svg xmlns="http://www.w3.org/2000/svg" width="1600" height="900" viewBox="0 0 1600 900">
  <defs>
    <linearGradient id="bg" x1="0" x2="1" y1="0" y2="1">
      <stop offset="0%" stop-color="#08111f"/>
      <stop offset="54%" stop-color="#10233f"/>
      <stop offset="100%" stop-color="#0f9f9a"/>
    </linearGradient>
    <linearGradient id="panel" x1="0" x2="1">
      <stop offset="0%" stop-color="#ffffff" stop-opacity=".13"/>
      <stop offset="100%" stop-color="#ffffff" stop-opacity=".05"/>
    </linearGradient>
    <filter id="shadow" x="-20%" y="-20%" width="140%" height="140%">
      <feDropShadow dx="0" dy="24" stdDeviation="24" flood-color="#000000" flood-opacity=".28"/>
    </filter>
  </defs>
      <rect width="1600" height="900" fill="#f6f9ff"/>
      <text x="92" y="110" fill="#0f172a" font-size="52" font-family="Inter, Arial, sans-serif" font-weight="900">L3AI ecosystem map</text>
      <text x="92" y="158" fill="#475569" font-size="24" font-family="Inter, Arial, sans-serif" font-weight="700">Product, content, trust and launch operations in one public surface.</text>
      <circle cx="800" cy="456" r="120" fill="#0f172a"/>
      <text x="742" y="472" fill="#ffffff" font-size="48" font-family="Inter, Arial, sans-serif" font-weight="900">L3AI</text>
      <line x1="800" y1="456" x2="372" y2="300" stroke="#155eef" stroke-width="4" opacity=".38"/><rect x="212" y="248" width="320" height="104" rx="18" fill="#ffffff" stroke="#dbeafe"/><text x="372" y="308" text-anchor="middle" fill="#0f172a" font-size="25" font-family="Inter, Arial, sans-serif" font-weight="900">AI market context</text>
<line x1="800" y1="456" x2="800" y2="220" stroke="#155eef" stroke-width="4" opacity=".38"/><rect x="640" y="168" width="320" height="104" rx="18" fill="#ffffff" stroke="#dbeafe"/><text x="800" y="228" text-anchor="middle" fill="#0f172a" font-size="25" font-family="Inter, Arial, sans-serif" font-weight="900">Wallet education</text>
<line x1="800" y1="456" x2="1228" y2="300" stroke="#155eef" stroke-width="4" opacity=".38"/><rect x="1068" y="248" width="320" height="104" rx="18" fill="#ffffff" stroke="#dbeafe"/><text x="1228" y="308" text-anchor="middle" fill="#0f172a" font-size="25" font-family="Inter, Arial, sans-serif" font-weight="900">Public resources</text>
<line x1="800" y1="456" x2="1228" y2="628" stroke="#155eef" stroke-width="4" opacity=".38"/><rect x="1068" y="576" width="320" height="104" rx="18" fill="#ffffff" stroke="#dbeafe"/><text x="1228" y="636" text-anchor="middle" fill="#0f172a" font-size="25" font-family="Inter, Arial, sans-serif" font-weight="900">Business deck</text>
<line x1="800" y1="456" x2="800" y2="700" stroke="#155eef" stroke-width="4" opacity=".38"/><rect x="640" y="648" width="320" height="104" rx="18" fill="#ffffff" stroke="#dbeafe"/><text x="800" y="708" text-anchor="middle" fill="#0f172a" font-size="25" font-family="Inter, Arial, sans-serif" font-weight="900">Media kit</text>
<line x1="800" y1="456" x2="372" y2="628" stroke="#155eef" stroke-width="4" opacity=".38"/><rect x="212" y="576" width="320" height="104" rx="18" fill="#ffffff" stroke="#dbeafe"/><text x="372" y="636" text-anchor="middle" fill="#0f172a" font-size="25" font-family="Inter, Arial, sans-serif" font-weight="900">Risk boundary</text></svg>